<?xml version="1.0" encoding="utf-8"?>
<!-- Generator: Adobe Illustrator 16.0.0, SVG Export Plug-In . SVG Version: 6.00 Build 0)  -->
<!DOCTYPE svg PUBLIC "-//W3C//DTD SVG 1.1//EN" "http://www.w3.org/Graphics/SVG/1.1/DTD/svg11.dtd">
<svg version="1.1" id="Layer_1" xmlns="http://www.w3.org/2000/svg" xmlns:xlink="http://www.w3.org/1999/xlink" x="0px" y="0px"
	 width="218px" height="108px" viewBox="0 0 218 108" enable-background="new 0 0 218 108" xml:space="preserve">
<g>
	<g>
		<g>
			<g>
				<path fill="#5F0F1A" d="M105.391,103.999c-13.651-0.262-29.711-5.086-43.119-16.965c-3.35-2.969-6.022-6.708-8.966-10.131
					c-0.827-0.964-1.317-2.124-0.12-3.16c1.227-1.063,2.134-0.206,3.084,0.631c6.925,6.096,15.248,9.393,24.021,11.606
					c13.649,3.442,27.504,4.239,41.508,2.839c10.814-1.078,21.364-3.214,31.131-8.143c3.334-1.683,6.342-4.017,9.469-6.106
					c1.07-0.715,2.027-2.045,3.406-0.742c1.344,1.27,0.252,2.415-0.486,3.482c-6.945,10.04-16.406,16.847-27.615,21.362
					C128.631,102.324,119.176,104.042,105.391,103.999z"/>
				<path fill="#5F0F1A" d="M164.904,66.86c4.913,0.13,8.934,4.845,8.051,9.396c-0.229,1.168-0.873,2.016-2.003,1.675
					c-0.682-0.205-1.146-1.188-1.653-1.864c-0.118-0.16-0.003-0.492-0.014-0.74c-0.098-2.775-1.865-4.58-4.646-4.592
					c-1.502-0.006-2.834-0.332-2.73-2.039C162.012,66.998,163.506,66.836,164.904,66.86z"/>
				<path fill="#5F0F1A" d="M53.999,66.866c0.703,0.015,2.056,0.29,2.115,1.89c0.056,1.605-1.175,1.958-2.607,1.976
					c-3.029,0.033-4.703,1.754-4.745,4.836c-0.019,1.26-0.247,2.319-1.729,2.417c-1.628,0.108-1.966-1.085-2.082-2.346
					C44.535,71.137,48.688,66.81,53.999,66.866z"/>
			</g>
		</g>
	</g>
	<g>
		<path fill="#5F0F1A" d="M6.319,26.728l-1.138-9.081c-0.147-1.261-0.34-2.533-0.58-3.811c-0.213-1.102-0.451-2.187-0.717-3.25
			c-0.597-2.062-1.39-3.439-2.374-4.131c1.502-1.291,3.233-1.956,5.186-1.995c1.543,0,2.623,1.33,3.234,3.99
			c0.239,1.17,0.446,2.416,0.618,3.73c0.279,1.958,0.559,4.339,0.839,7.146c0.266,2.688,0.512,5.547,0.738,8.58
			c1.476-2.355,2.706-4.338,3.691-5.946c1.145-1.875,2.123-3.526,2.933-4.95c1.743-3.059,3-5.587,3.771-7.582
			c0.32-0.771,0.54-1.444,0.66-2.017c0.173-0.771,0.179-1.469,0.019-2.094c1.224-0.467,2.47-0.699,3.734-0.699
			c1.396,0,2.116,0.472,2.154,1.417c0,0.253-0.059,0.57-0.181,0.958L28.489,8.17c-0.266,0.718-0.725,1.657-1.376,2.815
			c-0.521,0.918-1.206,2.047-2.057,3.392l-4.39,6.982c-1.423,2.276-2.632,4.252-3.63,5.927c-2.237,3.793-3.76,6.701-4.57,8.722
			c-0.082,0.12-0.267,0.258-0.559,0.418c-0.28,0.147-0.62,0.286-1.019,0.42c-0.877,0.306-1.635,0.458-2.274,0.458
			c-0.691,0-1.11-0.504-1.258-1.514C7.037,32.915,6.691,29.894,6.319,26.728z"/>
		<path fill="#5F0F1A" d="M33.478,30.82c1.795-1.968,2.695-2.529,2.695-1.678c0,0.438-0.22,1.171-0.658,2.196
			c-0.561,1.318-1.532,2.516-2.915,3.592c-1.371,1.065-2.594,1.595-3.671,1.595c-2.263,0-3.472-1.25-3.632-3.75
			c-0.053-0.599-0.026-1.423,0.08-2.474c0.133-1.385,0.379-2.754,0.737-4.111c0.294-1.025,0.572-2.204,0.839-3.534l0.28-1.555
			c0.013-0.053,0.026-0.115,0.042-0.18l0.197-1.098c0.132-0.692,0.2-1.43,0.2-2.215c0-0.746-0.206-1.424-0.62-2.037
			c1.545-0.57,2.908-0.856,4.092-0.856c0.958,0,1.637,0.211,2.035,0.636c0.493,0.535,0.659,1.245,0.5,2.137
			c-0.159,0.864-0.312,1.542-0.46,2.035l-1.576,6.006c-0.412,1.794-0.619,3.444-0.619,4.948c0,0.374,0.047,0.725,0.142,1.059
			c0.08,0.24,0.178,0.472,0.297,0.699C31.889,32.156,32.562,31.685,33.478,30.82z M35.435,4.239c-1.957,0-3.812,0.345-5.569,1.037
			c0.025,0.028,0.053,0.075,0.08,0.14l0.06,0.14c0.052,0.106,0.08,0.199,0.08,0.279c0.013,0.6-0.092,1.519-0.318,2.755l-0.24,1.316
			c-0.067,0.466-0.1,0.827-0.1,1.08c0,1.076,0.727,1.463,2.175,1.156c1.185-0.253,1.943-0.506,2.274-0.757
			c0.333-0.268,0.944-1.093,1.837-2.478c0.917-1.409,1.462-2.444,1.635-3.112c0.028-0.133,0.04-0.291,0.04-0.477
			C37.349,4.598,36.697,4.239,35.435,4.239z"/>
		<path fill="#5F0F1A" d="M54.331,29.859c0.252,0.454,0.378,0.933,0.378,1.438c0,0.667-0.205,1.264-0.618,1.796
			c-0.744,0.92-1.762,1.658-3.051,2.216c-2.022,0.917-4.177,1.377-6.466,1.377c-4.948,0-7.524-2.096-7.723-6.287
			c-0.214-4.403,1.148-8.202,4.091-11.393c2.767-3.354,6.06-5.031,9.876-5.031c3.273,0,4.911,1.292,4.911,3.871
			c0,2.875-1.251,5.209-3.753,7.007c-2.674,1.769-5.659,2.567-8.959,2.394c-0.188,0.906-0.281,1.697-0.281,2.376
			c0,0.904,0.148,1.554,0.441,1.954c1.05,1.478,2.361,2.094,3.931,1.856C49.688,33.181,52.097,31.991,54.331,29.859z M39.644,42.551
			c0-0.358,0.028-0.703,0.081-1.037l0.159-0.797c0.014-0.053,0.034-0.115,0.06-0.181l0.04-0.16c0.028-0.119,0.054-0.22,0.082-0.299
			c0.054-0.213,0.08-0.398,0.08-0.557c1.144-0.575,2.16-0.858,3.052-0.858c1.69,0,2.536,0.698,2.536,2.095
			c0,0.613-0.235,1.51-0.698,2.695c-1.105,0.65-2.195,0.976-3.274,0.976C40.35,44.427,39.644,43.803,39.644,42.551z M43.556,24.712
			c2.047,0,3.623-0.445,4.729-1.336c1.371-1.158,2.055-2.574,2.055-4.251c0-1.608-0.52-2.414-1.558-2.414
			C46.549,16.71,44.806,19.377,43.556,24.712z M56.747,11.083c-0.161,0.04-0.333,0.073-0.521,0.101l-0.278,0.02
			c-1.091,0-2.615-1.077-4.569-3.231c-2.849,2.154-5.03,3.231-6.545,3.231c-0.783,0-1.178-0.206-1.178-0.618l3.213-2.774
			C49.767,5.268,51.785,4,52.914,4c0.414,0,0.745,0.078,0.999,0.239c0.772,2.182,2.127,4.197,4.069,6.046
			C57.677,10.673,57.264,10.938,56.747,11.083z"/>
		<path fill="#5F0F1A" d="M73.586,31.059c0,1.597-1.236,2.973-3.709,4.129c-2.142,0.999-4.251,1.499-6.326,1.499
			c-4.91,0-7.364-2.302-7.364-6.907c0-4.108,1.376-7.761,4.131-10.955c2.807-3.231,6.073-4.85,9.799-4.85
			c3.43,0,5.147,0.86,5.147,2.576c0,1.503-1.276,2.661-3.833,3.474c-0.477-2.13-1.448-3.195-2.913-3.195
			c-1.742,0-3.172,1.051-4.29,3.153c-1.145,2.183-1.715,5.082-1.715,8.701c0,1.343,0.245,2.428,0.737,3.252
			c0.546,0.906,1.336,1.357,2.375,1.357c3.031,0,5.581-1.211,7.645-3.631C73.483,30.06,73.586,30.527,73.586,31.059z"/>
		<path fill="#5F0F1A" d="M76.74,29.303c0.347-2.104,0.806-4.503,1.378-7.204c0.598-2.807,1.229-5.515,1.896-8.123
			c0.731-2.873,1.429-5.314,2.095-7.322c0.2-0.678,0.664-1.291,1.396-1.835c0.585-0.401,1.264-0.58,2.035-0.54
			c1.397,0.095,2.623,0.559,3.673,1.396c-0.76,0.852-1.277,1.629-1.558,2.337c-1.357,3.749-2.561,7.906-3.611,12.471
			c-1.078,4.644-1.618,8.128-1.618,10.456c0,0.306,0.043,0.564,0.122,0.778c0.57,0.199,1.337,0.333,2.294,0.4
			c0.639,0.053,1.429,0.078,2.375,0.078c3.059,0,5.528-0.472,7.402-1.416l0.16-0.1c0.054,0,0.082,0.086,0.082,0.259
			c-0.121,2.594-0.914,4.244-2.375,4.949c-0.694,0.333-1.657,0.553-2.895,0.659c-0.533,0.041-1.17,0.072-1.916,0.099l-5.568,0.023
			c-1.158,0-2.248,0.005-3.272,0.019c-1.743,0-2.614-0.952-2.614-2.852C76.223,32.981,76.396,31.471,76.74,29.303z"/>
		<path fill="#5F0F1A" d="M120.582,28.803c0.147,0,0.222,0.126,0.222,0.379c0,1.492-0.847,3.102-2.536,4.831
			c-1.689,1.73-3.26,2.592-4.709,2.592c-2.421,0-3.632-1.442-3.632-4.329c0-1.251,0.068-2.354,0.2-3.313
			c-3.073,5.002-5.987,7.562-8.74,7.681h-0.459c-1.543,0-2.689-0.539-3.433-1.615c-0.653-0.958-0.979-2.336-0.979-4.131
			c0.08-4.057,1.429-7.856,4.052-11.396c1.236-1.687,2.6-3.011,4.09-3.967c1.583-1.014,3.171-1.517,4.769-1.517
			c1.676,0,3.014,0.378,4.012,1.135c0.664-0.704,1.524-1.057,2.573-1.057c1.159,0,2.369,0.326,3.634,0.977
			c-0.359,0.533-0.779,1.51-1.258,2.934c-0.438,1.29-0.877,2.781-1.318,4.471c-0.955,3.777-1.437,6.472-1.437,8.08
			c0,0.201,0.021,0.387,0.059,0.56l0.4,1.158c0.465-0.081,1.132-0.553,1.995-1.417C119.339,29.49,120.171,28.803,120.582,28.803z
			 M110.346,23.835c0.824-1.597,1.477-3.06,1.957-4.39c-0.428-1.583-1.516-2.377-3.273-2.377c-1.568,0-3.074,1.532-4.511,4.591
			c-1.355,2.928-2.036,5.79-2.036,8.582c0.08,1.41,0.532,2.114,1.357,2.114c0.758,0,1.982-1.249,3.672-3.75
			C108.511,27.168,109.455,25.578,110.346,23.835z M114.277,11.083c-0.399,0.133-0.77,0.172-1.119,0.121
			c-2.461-0.493-4.601-1.229-6.425-2.216c-1.796-0.972-2.691-1.867-2.691-2.693c0-0.585,0.498-1.131,1.496-1.637
			c1.063-0.558,2.167-0.752,3.313-0.58l0.778,1.159c0.305,0.452,0.57,0.831,0.798,1.137c0.627,0.837,1.29,1.545,1.995,2.115
			l2.216,1.657c0.187,0.159,0.277,0.277,0.277,0.359C114.914,10.732,114.703,10.923,114.277,11.083z"/>
		<path fill="#5F0F1A" d="M146.046,30.201l0.618-2.774c1.038-4.643,1.557-7.19,1.557-7.643c0-0.467-0.207-0.698-0.617-0.698
			c-0.453,0-1.146,0.557-2.074,1.676c-0.879,1.064-1.826,2.432-2.836,4.111c-1.025,1.715-1.908,3.418-2.654,5.107
			c-0.824,1.851-1.358,3.406-1.595,4.669c0,0.307,0.052,0.62,0.159,0.94c-0.706,0.57-1.656,0.856-2.854,0.856
			c-1.132,0-2.082-0.405-2.855-1.217l2.416-10.157c0.678-2.902,1.019-4.662,1.019-5.288c0-0.492-0.222-0.739-0.659-0.739
			c-0.492,0.014-1.26,0.652-2.297,1.917c-0.412,0.519-0.896,1.168-1.455,1.956l-1.517,2.215c-0.612,0.891-1.237,2.047-1.876,3.472
			l-2.334,5.607c-0.627,1.491-1.743,2.234-3.352,2.234c-0.787,0-1.852-0.118-3.193-0.358c0.77-1.889,1.462-3.833,2.074-5.827
			c0.558-1.77,1.037-3.519,1.436-5.249c0.732-3.142,1.1-5.515,1.1-7.125c0-1.011-0.16-1.91-0.48-2.693
			c1.77-0.76,3.199-1.139,4.29-1.139c1.466,0,2.196,0.665,2.196,1.996c0,0.691-0.127,1.662-0.378,2.914l-0.441,1.836l-0.519,2.034
			c3.818-5.933,7.238-8.899,10.257-8.899c1.877,0,2.815,0.886,2.815,2.654c0,2.274-0.314,4.331-0.938,6.166
			c1.782-2.834,3.646-5.053,5.587-6.664c1.757-1.437,3.273-2.155,4.55-2.155c1.851,0,2.774,0.977,2.774,2.934
			c0,1.01-0.134,2.229-0.4,3.652c-0.105,0.583-0.246,1.224-0.418,1.914l-1.357,5.428c-0.266,1.171-0.4,2.057-0.4,2.654
			c0,0.68,0.143,1.265,0.42,1.757c0.253-0.054,0.625-0.267,1.119-0.641c0.345-0.279,0.799-0.678,1.355-1.196l0.68-0.617
			c0.238-0.243,0.432-0.421,0.578-0.539c0.384-0.347,0.625-0.52,0.717-0.52c0.16,0,0.242,0.125,0.242,0.377
			c0,1.477-0.846,3.081-2.535,4.811c-1.691,1.744-3.266,2.613-4.73,2.613c-2.367,0-3.551-1.224-3.551-3.67
			C145.699,32.202,145.818,31.306,146.046,30.201z"/>
		<path fill="#5F0F1A" d="M162.869,26.728l-1.139-9.081c-0.146-1.261-0.34-2.533-0.578-3.811c-0.213-1.102-0.453-2.187-0.719-3.25
			c-0.599-2.062-1.391-3.439-2.375-4.131c1.505-1.291,3.234-1.956,5.188-1.995c1.542,0,2.622,1.33,3.233,3.99
			c0.24,1.17,0.445,2.416,0.619,3.73c0.277,1.958,0.558,4.339,0.838,7.146c0.266,2.688,0.512,5.547,0.738,8.58
			c1.475-2.355,2.707-4.338,3.692-5.946c1.142-1.875,2.122-3.526,2.933-4.95c1.742-3.059,3.001-5.587,3.771-7.582
			c0.321-0.771,0.54-1.444,0.659-2.017c0.174-0.771,0.18-1.469,0.02-2.094c1.224-0.467,2.47-0.699,3.732-0.699
			c1.396,0,2.117,0.472,2.154,1.417c0,0.253-0.059,0.57-0.18,0.958l-0.419,1.178c-0.267,0.718-0.725,1.657-1.376,2.815
			c-0.52,0.918-1.205,2.047-2.056,3.392l-4.392,6.982c-1.424,2.276-2.631,4.252-3.63,5.927c-2.236,3.793-3.759,6.701-4.569,8.722
			c-0.081,0.12-0.269,0.258-0.561,0.418c-0.279,0.147-0.617,0.286-1.016,0.42c-0.879,0.306-1.639,0.458-2.276,0.458
			c-0.69,0-1.111-0.504-1.257-1.514C163.588,32.915,163.24,29.894,162.869,26.728z"/>
		<path fill="#5F0F1A" d="M201.86,16.312c0,0.756-0.173,1.776-0.519,3.054l-0.738,2.614c-0.039,0.133-0.08,0.259-0.119,0.379
			c-0.334,1.171-0.592,2.128-0.777,2.874c-0.52,2.115-0.779,3.798-0.779,5.051c0,0.37,0.047,0.716,0.14,1.035
			c0.079,0.254,0.179,0.492,0.301,0.72c0.265-0.055,0.637-0.274,1.116-0.66c0.346-0.265,0.806-0.665,1.376-1.197l0.659-0.617
			c0.253-0.229,0.444-0.4,0.577-0.52c0.388-0.345,0.625-0.519,0.721-0.519c0.171,0,0.259,0.121,0.259,0.36
			c0,1.477-0.846,3.087-2.533,4.827c-1.705,1.746-3.287,2.617-4.752,2.617c-2.42,0-3.632-1.458-3.632-4.372
			c0-0.506,0.034-1.029,0.103-1.575c0.051-0.374,0.139-0.898,0.258-1.578c-3.205,5.256-6.379,7.884-9.519,7.884
			c-1.37,0-2.343-0.44-2.913-1.316c-0.425-0.666-0.639-1.623-0.639-2.875c0-0.718,0.15-1.831,0.459-3.333l2.015-8.86
			c0.306-1.49,0.46-2.581,0.46-3.272c0-0.878-0.133-1.57-0.4-2.077c1.477-0.572,2.813-0.857,4.013-0.857
			c1.568,0,2.353,0.752,2.353,2.255c0,0.346-0.045,0.772-0.138,1.277l-1.558,6.685c-0.039,0.159-0.08,0.306-0.12,0.438
			c-0.157,0.665-0.292,1.231-0.397,1.698c-0.559,2.381-0.84,3.984-0.84,4.809c0,0.705,0.262,1.058,0.778,1.058
			c1.411,0,3.386-2.289,5.929-6.865c2.086-3.818,3.133-6.952,3.133-9.399c0-0.546-0.095-1.005-0.281-1.377
			c1.105-0.386,2.275-0.578,3.515-0.578C201.031,14.203,201.86,14.941,201.86,16.312z"/>
		<path fill="#5F0F1A" d="M212.577,30.82c1.794-1.968,2.693-2.529,2.693-1.678c0,0.438-0.218,1.171-0.658,2.196
			c-0.558,1.318-1.528,2.516-2.913,3.592c-1.371,1.065-2.595,1.595-3.673,1.595c-2.263,0-3.473-1.25-3.632-3.75
			c-0.052-0.599-0.024-1.423,0.08-2.474c0.133-1.385,0.381-2.754,0.738-4.111c0.293-1.025,0.573-2.204,0.838-3.534l0.279-1.555
			c0.014-0.053,0.027-0.115,0.041-0.18l0.199-1.098c0.133-0.692,0.201-1.43,0.201-2.215c0-0.746-0.207-1.424-0.619-2.037
			c1.541-0.57,2.905-0.856,4.09-0.856c0.957,0,1.637,0.211,2.035,0.636c0.49,0.535,0.66,1.245,0.5,2.137
			c-0.16,0.864-0.313,1.542-0.459,2.035l-1.577,6.006c-0.413,1.794-0.618,3.444-0.618,4.948c0,0.374,0.047,0.725,0.139,1.059
			c0.08,0.24,0.182,0.472,0.299,0.699C210.988,32.156,211.658,31.685,212.577,30.82z M214.533,4.239
			c-1.956,0-3.813,0.345-5.568,1.037c0.026,0.028,0.055,0.075,0.08,0.14l0.06,0.14c0.054,0.106,0.081,0.199,0.081,0.279
			c0.012,0.6-0.095,1.519-0.318,2.755l-0.241,1.316c-0.067,0.466-0.1,0.827-0.1,1.08c0,1.076,0.725,1.463,2.176,1.156
			c1.183-0.253,1.941-0.506,2.273-0.757c0.333-0.268,0.945-1.093,1.836-2.478c0.917-1.409,1.464-2.444,1.638-3.112
			c0.024-0.133,0.04-0.291,0.04-0.477C216.449,4.598,215.797,4.239,214.533,4.239z"/>
	</g>
	<g>
		<path fill="#5F0F1A" d="M174.07,58.677c0.387,0,0.709,0.2,0.971,0.604c0.293,0.461,0.438,1.011,0.438,1.655
			c0,0.737-0.226,1.413-0.679,2.02c-0.658,0.878-1.345,1.314-2.057,1.314c-0.408,0-0.756-0.222-1.039-0.665
			c-0.283-0.442-0.424-0.987-0.424-1.634c0-1.046,0.358-1.89,1.076-2.534C172.945,58.918,173.516,58.665,174.07,58.677z"/>
		<path fill="#5F0F1A" d="M183.804,48.766c-0.272-0.035-0.606,0.239-1.001,0.818c-0.395,0.583-0.791,1.382-1.186,2.393
			c-0.51,1.313-0.943,2.75-1.303,4.318c-0.357,1.563-0.538,2.804-0.538,3.711c0,0.414,0.069,0.757,0.211,1.029
			c0.139,0.269,0.313,0.405,0.521,0.405c0.304,0,0.61-0.146,0.925-0.436c0.318-0.285,0.777-0.832,1.381-1.639
			c0.393-0.53,0.674-0.793,0.84-0.793c0.107,0,0.205,0.076,0.295,0.234c0.09,0.154,0.135,0.319,0.135,0.492
			c0,0.274-0.106,0.609-0.316,1c-0.212,0.391-0.58,0.938-1.106,1.64c-1.212,1.612-2.419,2.416-3.616,2.416
			c-0.869,0-1.564-0.454-2.09-1.363c-0.481-0.83-0.723-1.814-0.723-2.952c0-1.357,0.24-2.837,0.713-4.437
			c0.474-1.601,1.109-3.074,1.906-4.42c0.803-1.347,1.636-2.384,2.498-3.109c0.861-0.725,1.694-1.087,2.496-1.087
			c0.74,0,1.307,0.323,1.703,0.966c0.367,0.588,0.549,1.285,0.549,2.09c0,0.633-0.132,1.181-0.395,1.639
			c-0.261,0.462-0.57,0.692-0.932,0.692c-0.293,0-0.549-0.164-0.77-0.491c-0.218-0.327-0.326-0.712-0.326-1.148
			c0-0.358,0.1-0.817,0.301-1.381c0.035-0.115,0.054-0.212,0.054-0.294C184.03,48.885,183.956,48.789,183.804,48.766z"/>
		<path fill="#5F0F1A" d="M192.461,46.954c0.812,0,1.434,0.351,1.864,1.053c0.431,0.701,0.646,1.709,0.646,3.02
			c0,1.267-0.222,2.7-0.659,4.299c-0.438,1.6-1.01,3.074-1.721,4.421c-0.791,1.472-1.621,2.612-2.494,3.419
			c-0.872,0.806-1.715,1.208-2.525,1.208c-0.84,0-1.506-0.385-2.004-1.159c-0.53-0.826-0.797-1.939-0.797-3.329
			c0-2.002,0.477-4.102,1.424-6.302c0.89-2.049,1.893-3.667,3.01-4.853C190.32,47.548,191.406,46.954,192.461,46.954z
			 M192.129,48.836c-0.309-0.047-0.685,0.333-1.126,1.138c-0.441,0.808-0.888,1.911-1.341,3.316
			c-0.396,1.232-0.713,2.455-0.951,3.669c-0.241,1.213-0.361,2.194-0.361,2.943c0,0.461,0.063,0.828,0.189,1.103
			c0.123,0.278,0.286,0.417,0.487,0.417c0.323,0,0.707-0.393,1.147-1.174c0.439-0.783,0.859-1.803,1.256-3.059
			c0.356-1.172,0.662-2.42,0.914-3.745c0.25-1.323,0.375-2.365,0.375-3.125C192.719,49.376,192.523,48.881,192.129,48.836z"/>
		<path fill="#5F0F1A" d="M206.515,50.183c0.717-1.209,1.346-2.061,1.886-2.555c0.537-0.496,1.104-0.746,1.7-0.746
			c0.69,0,1.252,0.326,1.689,0.971c0.403,0.597,0.603,1.407,0.603,2.431c0,0.577-0.058,1.179-0.171,1.806
			c-0.115,0.627-0.345,1.603-0.688,2.928c-0.727,2.762-1.089,4.604-1.089,5.523c0,0.461,0.134,0.748,0.397,0.863
			c0.318,0.138,0.507,0.248,0.566,0.329c0.062,0.079,0.092,0.246,0.092,0.501c0,0.319-0.086,0.545-0.26,0.673
			c-0.171,0.126-0.494,0.206-0.967,0.239c-0.977,0.082-1.85,0.387-2.617,0.917c-0.195,0.124-0.354,0.188-0.473,0.188
			c-0.368,0-0.551-0.58-0.551-1.743c0-0.941,0.141-2.076,0.426-3.399c0.283-1.324,0.846-3.472,1.685-6.442
			c0.224-0.783,0.333-1.357,0.333-1.727c0-0.437-0.117-0.657-0.354-0.657c-0.321,0-0.725,0.358-1.206,1.071
			c-0.479,0.716-0.965,1.67-1.454,2.868c-0.538,1.323-0.944,2.676-1.216,4.058c-0.224,1.104-0.334,1.874-0.334,2.312
			c0,0.37,0.131,0.641,0.388,0.813c0.343,0.242,0.517,0.541,0.517,0.898c0,0.333-0.117,0.569-0.355,0.706
			c-0.095,0.057-0.398,0.11-0.915,0.157c-0.323,0.023-0.715,0.119-1.181,0.282c-0.461,0.169-0.844,0.351-1.146,0.546
			c-0.237,0.149-0.431,0.225-0.581,0.225c-0.353,0-0.527-0.518-0.527-1.554c0-1.555,0.617-4.569,1.85-9.047
			c0.398-1.428,0.594-2.337,0.594-2.729c0-0.436-0.117-0.655-0.355-0.655c-0.389,0-0.902,0.577-1.545,1.735
			c-0.643,1.157-1.229,2.564-1.758,4.223c-0.662,2.036-0.99,3.951-0.982,5.748c0,0.496-0.037,0.82-0.119,0.976
			c-0.08,0.155-0.258,0.263-0.537,0.317c-0.239,0.035-0.561,0.135-0.969,0.296c-0.41,0.162-0.729,0.31-0.959,0.448
			c-0.26,0.149-0.465,0.226-0.615,0.226c-0.372,0-0.559-0.491-0.559-1.466c0-1.063,0.256-2.708,0.764-4.94
			c0.266-1.174,0.768-3.061,1.508-5.665c0.281-0.988,0.421-1.73,0.421-2.227c0-0.459-0.159-0.742-0.476-0.846
			c-0.279-0.092-0.467-0.192-0.565-0.302c-0.096-0.108-0.143-0.283-0.143-0.526c0-0.506,0.247-0.753,0.742-0.745
			c1.255,0.024,2.274-0.147,3.058-0.516c0.129-0.045,0.244-0.071,0.344-0.071c0.396,0,0.592,0.458,0.592,1.365
			c0,0.438-0.057,1.013-0.171,1.726c0.415-0.702,0.753-1.221,1.013-1.553c0.797-1.06,1.656-1.589,2.584-1.589
			c0.595,0,1.078,0.296,1.447,0.89C206.244,48.331,206.457,49.146,206.515,50.183z"/>
	</g>
</g>
</svg>
